<mxfile host="app.diagrams.net" modified="2023-10-26T02:50:23.505Z" agent="Mozilla/5.0 (Windows NT 10.0; Win64; x64) AppleWebKit/537.36 (KHTML, like Gecko) Chrome/106.0.0.0 Safari/537.36" version="22.0.8" etag="EHV-ulMt85-1ft8wFnX9" type="github">
  <diagram name="第 1 页" id="hcnMBH1is98TP9hmyZzp">
    <mxGraphModel>
      <root>
        <mxCell id="0" />
        <mxCell id="1" parent="0" />
      </root>
    </mxGraphModel>
  </diagram>
</mxfile>
